<svg xmlns="http://www.w3.org/2000/svg">
	<defs>
		<symbol id="blog">
			<path stroke-linecap="round" stroke-linejoin="round" d="M12 18v-5.25m0 0a6.01 6.01 0 001.5-.189m-1.5.189a6.01 6.01 0 01-1.5-.189m3.75 7.478a12.06 12.06 0 01-4.5 0m3.75 2.383a14.406 14.406 0 01-3 0M14.25 18v-.192c0-.983.658-1.823 1.508-2.316a7.5 7.5 0 10-7.517 0c.85.493 1.509 1.333 1.509 2.316V18" />
		</symbol>
		<symbol id="email">
			<circle cx="12" cy="12" r="4"></circle><path d="M16 8v5a3 3 0 0 0 6 0v-1a10 10 0 1 0-3.92 7.94"></path>
		</symbol>
		<symbol id="github">
			<path d="M9 19c-5 1.5-5-2.5-7-3m14 6v-3.87a3.37 3.37 0 0 0-.94-2.61c3.14-.35 6.44-1.54 6.44-7A5.44 5.44 0 0 0 20 4.77 5.07 5.07 0 0 0 19.91 1S18.73.65 16 2.48a13.38 13.38 0 0 0-7 0C6.27.65 5.09 1 5.09 1A5.07 5.07 0 0 0 5 4.77a5.44 5.44 0 0 0-1.5 3.78c0 5.42 3.3 6.61 6.44 7A3.37 3.37 0 0 0 9 18.13V22"></path>
		</symbol>
		<symbol id="home">
			<path stroke-linecap="round" stroke-linejoin="round" d="M2.25 12l8.954-8.955c.44-.439 1.152-.439 1.591 0L21.75 12M4.5 9.75v10.125c0 .621.504 1.125 1.125 1.125H9.75v-4.875c0-.621.504-1.125 1.125-1.125h2.25c.621 0 1.125.504 1.125 1.125V21h4.125c.621 0 1.125-.504 1.125-1.125V9.75M8.25 21h8.25" />
		</symbol>
		<symbol id="twitter">
			<path d="M23 3a10.9 10.9 0 0 1-3.14 1.53 4.48 4.48 0 0 0-7.86 3v1A10.66 10.66 0 0 1 3 4s-4 9 5 13a11.64 11.64 0 0 1-7 2c9 5 20 0 20-11.5a4.5 4.5 0 0 0-.08-.83A7.72 7.72 0 0 0 23 3z"></path>
		</symbol>
	</defs>
</svg>
